<svg id="Layer_1" enable-background="new 0 0 511.616 511.616" height="512" viewBox="0 0 511.616 511.616" width="512" xmlns="http://www.w3.org/2000/svg"><g fill="#ffb69e"><path d="m287.558 511.616c-12.745 0-23.076-10.332-23.076-23.077v-184.452c0-12.744 10.331-23.077 23.076-23.077s23.076 10.332 23.076 23.077v184.452c0 12.745-10.331 23.077-23.076 23.077z"/><path d="m231.441 511.616c-12.745 0-23.076-10.332-23.076-23.077v-184.452c0-12.744 10.331-23.077 23.076-23.077s23.076 10.332 23.076 23.077v184.452c0 12.745-10.331 23.077-23.076 23.077z"/><circle cx="259.5" cy="67.239" r="39.855"/><path d="m280.078 127.823-.409-8.025h-38.984l-.397 8.057c-.552 11.199 8.381 20.579 19.593 20.573h.626c11.217-.006 20.142-9.403 19.571-20.605z"/><path d="m382.466 160.126-20.887-12.776-13.551 15.052-4.551 18.96 4.639 2.837-15.919 36.541c-4.242 9.737.212 21.069 9.949 25.31 2.501 1.089 5.107 1.605 7.671 1.605 7.42 0 14.488-4.319 17.639-11.555l22.605-51.89c3.834-8.798.592-19.076-7.595-24.084z"/><path d="m165.673 192.137 14.244-9.994-6.053-18.199-15.654-13.554-30.071 21.101c-8.576 6.018-10.757 17.794-4.903 26.484l27.743 41.189c3.714 5.514 9.784 8.489 15.967 8.489 3.695 0 7.43-1.063 10.725-3.283 8.809-5.933 11.139-17.884 5.206-26.693z"/></g><path d="m361.579 147.351-40.426-24.727c-3.021-1.848-6.493-2.826-10.034-2.826h-15.15l-6.261 2.338-6.261-2.338h-3.776c.446 10.511-9.31 19.456-19.494 19.456-10.915 0-18.999-8.911-19.49-19.456h-3.692l-6.261 2.435-6.261-2.435h-16.589c-3.953 0-7.81 1.218-11.046 3.489l-38.625 27.103 21.707 31.753 28.431-19.95v141.894h102.276l-.175-142.927 33.029 20.203z" fill="#a55a3c"/><path d="m310.601 273.731h-102.254l.018 104.224h46.152v-73.868h9.965v73.868h46.152z" fill="#466e28"/><path d="m306.488 60.001-8.388-12.013-38.6-1.803-38.63 1.803-8.389 12.013c-1.743 2.496.043 5.921 3.087 5.921h87.832c3.045 0 4.831-3.425 3.088-5.921z" fill="#466e28"/><path d="m277.086 7.221-4.419 1.6c-8.508 3.081-17.827 3.081-26.335 0l-4.419-1.6c-10.228-3.704-21.028 3.872-21.028 14.75v15.582l38.615 2.211 38.615-2.211v-15.583c0-10.877-10.801-18.453-21.029-14.749z" fill="#466e28"/><path d="m298.736 10.946c-10.37 10.37-10.946 26.606-10.946 26.606s16.236-.577 26.606-10.946 10.946-26.606 10.946-26.606-16.236.577-26.606 10.946z" fill="#e64937"/><path d="m220.87 37.552h77.23v10.436h-77.23z" fill="#a55a3c"/><path d="m224.47 119.798h12.523v76.513h-12.523z" fill="#466e28"/><path d="m283.445 119.798h12.523v76.513h-12.523z" fill="#466e28"/><path d="m211.852 190.089-1.624 42.263 1.624 45.12 11.908-2.857 1.929-42.263-1.929-45.12z" fill="#6c9baa"/><path d="m235.669 190.089-1.889 43.691 1.889 43.692 11.908-2.857 2.194-40.835-2.194-46.548z" fill="#6c9baa"/><path d="m259.485 190.089-2.04 43.691 2.04 43.692 11.908-2.857 1.69-40.835-1.69-46.548z" fill="#6c9baa"/><path d="m283.301 190.089-2.029 42.263 2.029 45.12 11.909-2.857 1.57-42.263-1.57-45.12z" fill="#6c9baa"/><path d="m295.21 187.232v87.383l11.908 2.857 1.8-45.12-1.8-42.263z" fill="#b4d7dc"/><path d="m331.205 182.269h-16.238c-4.335 0-7.849 3.514-7.849 7.849v87.325c0 4.335 3.514 7.849 7.849 7.849h16.238c4.335 0 7.849-3.514 7.849-7.849v-87.325c0-4.335-3.514-7.849-7.849-7.849z" fill="#55879b"/><path d="m223.76 187.232v87.383l11.909 2.857v-87.383z" fill="#b4d7dc"/><path d="m247.577 187.232v87.383l11.908 2.857v-87.383z" fill="#b4d7dc"/><path d="m271.393 187.232v87.383l11.908 2.857v-87.383z" fill="#b4d7dc"/><path d="m204.003 182.269h-16.239c-4.335 0-7.849 3.514-7.849 7.849v87.325c0 4.335 3.514 7.849 7.849 7.849h16.239c4.335 0 7.849-3.514 7.849-7.849v-87.325c0-4.335-3.514-7.849-7.849-7.849z" fill="#55879b"/></svg>