<?xml version="1.0" encoding="iso-8859-1"?>
<!-- Generator: Adobe Illustrator 19.0.0, SVG Export Plug-In . SVG Version: 6.00 Build 0)  -->
<svg version="1.1" id="Capa_1" xmlns="http://www.w3.org/2000/svg" xmlns:xlink="http://www.w3.org/1999/xlink" x="0px" y="0px"
	 viewBox="0 0 512 512" style="enable-background:new 0 0 512 512;" xml:space="preserve">
<path style="fill:#FECBAA;" d="M358.441,433.552c-5.821,35.624-13.506,59.967-14.309,62.48
	c-3.894,12.094-16.864,18.76-28.969,14.845c-0.433-0.134-0.855-0.288-1.267-0.453c-1.514-0.577-2.926-1.298-4.234-2.163
	c-8.499-5.511-12.599-16.215-9.364-26.311c0.103-0.309,2.215-7.036,4.976-18.389c7.149-29.35,18.718-89.667,11.311-149.871
	c-3.121-25.25-9.57-50.489-21.078-73.421c-5.295-10.58-1.71-23.292,7.984-29.597c0.721-0.474,1.483-0.907,2.266-1.308
	c0.649-0.33,1.329-0.639,1.999-0.886c0.031-0.01,0.062-0.021,0.093-0.031c10.92-4.203,23.447,0.484,28.804,11.167
	c4.265,8.509,7.963,17.214,11.136,26.074c7.376,20.511,11.981,41.733,14.567,62.748
	C367.991,354.269,364.096,399.164,358.441,433.552z"/>
<path style="fill:#FFAE85;" d="M319.747,499.494c-1.308,4.059-3.307,7.747-5.851,10.93c-1.514-0.577-2.926-1.298-4.234-2.163
	c-8.499-5.511-12.599-16.215-9.364-26.311c0.103-0.309,2.215-7.036,4.976-18.389c7.149-29.35,18.718-89.667,11.311-149.871
	c-3.121-25.25-9.57-50.489-21.078-73.421c-5.295-10.58-1.71-23.292,7.984-29.597c0.721-0.474,1.483-0.907,2.266-1.308
	c0.649-0.33,1.329-0.639,1.999-0.886c1.473,1.854,2.761,3.873,3.853,6.047c13.567,27.022,22.582,58.154,26.816,92.531
	C350.251,403.141,321.004,495.6,319.747,499.494z"/>
<path style="fill:#FD6096;" d="M355.278,103.574v124.951h-94.601V103.574c0-4.924-3.956-8.963-8.86-8.973
	c-13.526-0.062-24.539,10.909-24.539,24.426v24.23h-79.54c-8.314,0-15.061-6.748-15.061-15.061v-9.169
	C132.676,53.405,186.081,0,251.703,0c21.768,0,42,6.758,58.689,18.296C337.486,36.984,355.278,68.229,355.278,103.574z"/>
<g>
	<path style="fill:#FC3E81;" d="M355.278,181.765v46.756h-94.599v-26.698c1.467-1.056,3.04-2.006,4.698-2.84
		c0.813-0.401,1.942-0.94,3.209-1.415c3.948-1.51,8.097-2.27,12.309-2.27c9.512,0,18.316,3.822,24.713,10.356
		C317.886,191.741,335.537,182.673,355.278,181.765z"/>
	<path style="fill:#FC3E81;" d="M310.394,18.292c-26.437,6.91-83.121,29.99-83.121,100.736c0,10.102-2.108,18.067-5.872,24.224
		h-73.666c-8.315,0-15.055-6.741-15.055-15.055v-9.169C132.68,53.402,186.081,0,251.708,0C273.478,0,293.698,6.76,310.394,18.292z"
		/>
</g>
<path style="fill:#FEDFC5;" d="M417.573,252.295c0,0.507,0,1.024-0.021,1.52c0,0.348-0.021,0.697-0.032,1.024
	c-1.33,31.417-27.205,56.457-58.949,56.457c-11.929,0-23.014-3.536-32.293-9.596c-15.434-10.113-25.832-27.247-26.656-46.861
	c-0.021-0.327-0.032-0.676-0.032-1.024c-0.032-0.496-0.032-1.013-0.032-1.52c0-8.952,1.995-17.44,5.563-25.04
	c9.417-20.068,29.812-33.961,53.449-33.961C391.16,193.293,417.573,219.695,417.573,252.295z"/>
<path style="fill:#FECBAA;" d="M299.588,253.814c0.934-0.105,1.882-0.151,2.831-0.151h112.298c0.949,0,1.897,0.045,2.831,0.151
	c0,0.346-0.015,0.693-0.03,1.024c-1.325,31.421-27.205,56.458-58.942,56.458c-31.752,0-57.632-25.037-58.957-56.458
	C299.603,254.507,299.588,254.161,299.588,253.814z"/>
<path style="fill:#C97F4C;" d="M367.038,359.456c0,16.627-11.57,30.562-27.099,34.161c-2.555,0.591-5.215,0.908-7.949,0.908
	c-19.382,0-35.069-15.708-35.069-35.069c0-7.717,2.502-14.853,6.746-20.649c6.355-8.741,16.669-14.41,28.324-14.41
	c2.935,0,5.796,0.359,8.519,1.045c14.104,3.526,24.84,15.603,26.35,30.403C366.975,357.038,367.038,358.242,367.038,359.456z"/>
<g>
	<path style="fill:#AA6344;" d="M339.939,393.617c-2.555,0.591-5.215,0.908-7.949,0.908c-19.382,0-35.069-15.708-35.069-35.069
		c0-7.717,2.502-14.853,6.746-20.649c6.355-8.741,16.669-14.41,28.324-14.41c2.935,0,5.796,0.359,8.519,1.045
		C342.103,347.22,341.913,370.012,339.939,393.617z"/>
	<path style="fill:#AA6344;" d="M366.856,355.845h-17.555c-16.937,0-32.776-6.248-45.633-17.043
		c6.353-8.732,16.666-14.408,28.319-14.408C350.129,324.394,365.049,338.185,366.856,355.845z"/>
</g>
<path style="fill:#C97F4C;" d="M426.525,284.851c-6.566,31.269-30.34,54.43-58.685,54.43h-18.538c-2.734,0-5.416-0.211-8.055-0.633
	c-24.713-3.906-44.708-25.537-50.63-53.797c-1.584-7.527,4.117-14.621,11.802-14.621h112.292
	C422.408,270.23,428.109,277.325,426.525,284.851z"/>
<path style="fill:#AA6344;" d="M341.248,338.648c-24.713-3.906-44.708-25.537-50.63-53.797c-1.584-7.527,4.117-14.621,11.802-14.621
	h29.633c2.871,11.792,5.099,24.09,6.661,36.79C339.981,317.324,340.826,327.87,341.248,338.648z"/>
<path style="fill:#364EC6;" d="M170.56,137.076V470.27c0,20.714,11.755,38.538,27.034,39.512
	c16.313,1.041,29.781-16.563,29.781-38.425l-0.005-334.281L170.56,137.076L170.56,137.076z"/>
<path style="fill:#4C60E1;" d="M136.285,137.076V470.27c0,20.714,11.755,38.538,27.034,39.512
	c16.313,1.041,29.781-16.563,29.781-38.425l-0.005-334.281L136.285,137.076L136.285,137.076z"/>
<g>
	<path style="fill:#FEDFC5;" d="M326.279,301.7c-15.434-10.113-25.832-27.247-26.656-46.861c-0.021-0.327-0.032-0.676-0.032-1.024
		c-0.032-0.496-0.032-1.013-0.032-1.52c0-8.952,1.995-17.44,5.563-25.04c2.766,6.06,5.257,12.204,7.495,18.432
		C319.206,264.013,323.587,282.888,326.279,301.7z"/>
	<path style="fill:#FEDFC5;" d="M327.178,308.443c11.486,93.32-16.633,182.659-18.216,187.58
		c-3.894,12.103-16.862,18.758-28.965,14.864c-12.098-3.894-18.751-16.845-14.871-28.947l0,0
		c0.453-1.417,44.765-142.931-4.793-241.679c-5.701-11.362-1.116-25.197,10.248-30.901c11.363-5.704,25.198-1.115,30.902,10.249
		C315.645,247.826,323.474,278.351,327.178,308.443z"/>
</g>
<path style="fill:#FC3E81;" d="M355.278,133.47v15.721c-5.367-1.35-16.833-2.648-30.988,4.893c-1.154,0.618-2.4,0.906-3.626,0.906
	c-2.761,0-5.429-1.483-6.82-4.09c-2.009-3.77-0.587-8.447,3.183-10.456C332.82,132.028,346.573,132.018,355.278,133.47z"/>
<g>
	<path style="fill:#AA6344;" d="M392.711,299.096c-4.267,0-7.726-3.459-7.726-7.726v-17.857c0-4.267,3.459-7.726,7.726-7.726
		s7.726,3.459,7.726,7.726v17.857C400.438,295.637,396.978,299.096,392.711,299.096z"/>
	<path style="fill:#AA6344;" d="M372.108,290.206c-4.267,0-7.726-3.459-7.726-7.726v-8.967c0-4.267,3.459-7.726,7.726-7.726
		s7.726,3.459,7.726,7.726v8.967C379.834,286.747,376.375,290.206,372.108,290.206z"/>
	<path style="fill:#AA6344;" d="M390.699,247.526c-4.267,0-7.774-3.459-7.774-7.726s3.411-7.726,7.679-7.726h0.096
		c4.267,0,7.726,3.459,7.726,7.726S394.966,247.526,390.699,247.526z"/>
</g>
<path style="fill:#BDDFF4;" d="M235.276,471.698v26.318c0,7.723-6.261,13.983-13.983,13.983h-91.976
	c-5.134,0-9.295-4.162-9.295-9.295v-1.994c0-21.157,17.151-38.308,38.308-38.308h67.652
	C231.115,462.403,235.276,466.565,235.276,471.698z"/>
<path style="fill:#E3F4FF;" d="M200.463,471.698v26.318c0,7.723-6.261,13.983-13.983,13.983H94.503
	c-5.134,0-9.295-4.162-9.295-9.295v-1.994c0-21.157,17.151-38.308,38.308-38.308h67.652
	C196.301,462.403,200.463,466.565,200.463,471.698z"/>
<g>
</g>
<g>
</g>
<g>
</g>
<g>
</g>
<g>
</g>
<g>
</g>
<g>
</g>
<g>
</g>
<g>
</g>
<g>
</g>
<g>
</g>
<g>
</g>
<g>
</g>
<g>
</g>
<g>
</g>
</svg>
