<?xml version="1.0" encoding="iso-8859-1"?>
<!-- Generator: Adobe Illustrator 19.0.0, SVG Export Plug-In . SVG Version: 6.00 Build 0)  -->
<svg version="1.1" id="Capa_1" xmlns="http://www.w3.org/2000/svg" xmlns:xlink="http://www.w3.org/1999/xlink" x="0px" y="0px"
	 viewBox="0 0 512 512" style="enable-background:new 0 0 512 512;" xml:space="preserve">
<circle style="fill:#3997EE;" cx="256" cy="256" r="256"/>
<g>
	<path style="fill:#57A7FF;" d="M463.141,105.572h-57.682c-6.973,0-12.625,5.653-12.625,12.625c0,6.973,5.652,12.625,12.625,12.625
		h19.618c6.973,0,12.625,5.652,12.625,12.625c0,6.972-5.652,12.625-12.625,12.625c-9.953,0-46.266,0-54.987,0
		c-6.972,0-12.625,5.653-12.625,12.625s5.652,12.625,12.625,12.625c14.122,0,43.68,0,48.432,0c6.973,0,12.625,5.652,12.625,12.625
		s-5.652,12.625-12.625,12.625h-5.317c-6.972,0-12.625,5.652-12.625,12.625c0,6.972,5.653,12.625,12.625,12.625h97.651
		C506.46,184.906,489.406,141.677,463.141,105.572z"/>
	<path style="fill:#57A7FF;" d="M490.939,283.277h-18.814c-6.972,0-12.625-5.652-12.625-12.625s5.652-12.625,12.625-12.625h18.814
		c6.973,0,12.625,5.652,12.625,12.625C503.564,277.624,497.911,283.277,490.939,283.277z"/>
</g>
<rect x="98.14" y="397.18" style="fill:#DDDDDD;" width="223.13" height="24.499"/>
<rect x="98.14" y="397.18" style="fill:#CECCCA;" width="38.532" height="24.499"/>
<path style="fill:#647892;" d="M95.079,455.087c3.391-3.885,5.45-8.964,5.45-14.526c0-18.581,0-25.531,0-43.38H42.437
	C56.941,419.078,74.72,438.611,95.079,455.087z"/>
<path style="fill:#4D6682;" d="M69.437,397.181h-27c8.034,12.128,17.076,23.527,27,34.086V397.181z"/>
<path style="fill:#647892;" d="M318.88,397.181c0,18.581,0,25.531,0,43.38c0,12.21,9.897,22.107,22.107,22.107h22.107
	c12.21,0,22.107-9.897,22.107-22.107c0-18.581,0-25.531,0-43.38H318.88z"/>
<path style="fill:#4D6682;" d="M352.04,440.561c0-17.715,0-24.686,0-43.38h-33.16c0,18.579,0,25.53,0,43.38
	c0,12.209,9.897,22.107,22.107,22.107h22.107c1.909,0,3.76-0.242,5.527-0.696C359.086,459.517,352.04,450.862,352.04,440.561z"/>
<path style="fill:#FCD597;" d="M398.387,321.998H387.11c-4.089,0-7.405-3.315-7.405-7.405s3.315-7.405,7.405-7.405h11.277
	c22.857,0,41.452-18.595,41.452-41.453V96.766c0-22.858-18.596-41.453-41.452-41.453h-32.284c-4.089,0-7.405-3.315-7.405-7.405
	s3.315-7.405,7.405-7.405h32.284c31.023,0,56.262,25.239,56.262,56.262v168.97C454.649,296.759,429.41,321.998,398.387,321.998z"/>
<path style="fill:#EFEFEF;" d="M363.395,34.34h-23.344c1.269,4.303,1.961,8.854,1.961,13.569l0,0c0,4.714-0.692,9.265-1.961,13.568
	h23.344c7.493,0,13.568-6.075,13.568-13.568l0,0C376.963,40.415,370.888,34.34,363.395,34.34z"/>
<g>
	<path style="fill:#FCD597;" d="M253.165,80.1H211.78c-4.089,0-7.405-3.315-7.405-7.405c0-4.09,3.315-7.404,7.405-7.404h41.385
		c4.089,0,7.404,3.315,7.404,7.404C260.569,76.785,257.254,80.1,253.165,80.1z"/>
	<path style="fill:#FCD597;" d="M253.165,30.528H211.78c-4.089,0-7.405-3.315-7.405-7.405s3.315-7.405,7.405-7.405h41.385
		c4.089,0,7.404,3.315,7.404,7.405S257.254,30.528,253.165,30.528z"/>
</g>
<path style="fill:#647892;" d="M302.002,0h-43.459c-3.247,0-5.879,2.632-5.879,5.879V90.35c0,3.019,2.447,5.466,5.466,5.466h43.872
	c26.459,0,47.908-21.449,47.908-47.908l0,0C349.911,21.449,328.461,0,302.002,0z"/>
<path style="fill:#4D6682;" d="M302.002,62.593H258.13c-3.019,0-5.466-2.447-5.466-5.466V90.35c0,3.019,2.447,5.466,5.466,5.466
	h43.872c26.459,0,47.908-21.449,47.908-47.908l0,0c0-5.841-1.048-11.436-2.962-16.612C340.194,49.567,322.621,62.593,302.002,62.593
	z"/>
<g>
	<path style="fill:#DDDDDD;" d="M379.64,211.859c-36.07,0-24.408,0-43.307,0v47.896c18.996,0,10.366,0,43.307,0
		c7.102,0,12.912-5.81,12.912-12.912v-22.072C392.552,217.669,386.742,211.859,379.64,211.859z"/>
	<path style="fill:#DDDDDD;" d="M39.769,211.859c36.07,0,24.408,0,43.307,0v47.896c-18.996,0-10.366,0-43.307,0
		c-7.102,0-12.912-5.81-12.912-12.912v-22.072C26.857,217.669,32.667,211.859,39.769,211.859z"/>
</g>
<g>
	<path style="fill:#CECCCA;" d="M379.64,235.807c-32.941,0-24.311,0-43.307,0v23.948c18.996,0,10.366,0,43.307,0
		c7.102,0,12.912-5.81,12.912-12.912v-22.072c0-0.316-0.025-0.627-0.048-0.938C392.018,230.499,386.426,235.807,379.64,235.807z"/>
	<path style="fill:#CECCCA;" d="M26.905,223.833c-0.023,0.311-0.048,0.621-0.048,0.938v22.072c0,7.102,5.81,12.912,12.912,12.912
		c32.941,0,24.311,0,43.307,0v-23.948c-18.996,0-10.366,0-43.307,0C32.984,235.807,27.391,230.499,26.905,223.833z"/>
</g>
<path style="fill:#EFEFEF;" d="M255.626,123.967h-88.964c-49.332,0-89.324,39.992-89.324,89.324v57.36H344.95V213.29
	C344.949,163.959,304.958,123.967,255.626,123.967z"/>
<path style="fill:#DDDDDD;" d="M220.161,123.967h-53.5c-49.332,0-89.324,39.991-89.324,89.324v57.361h53.5v-57.361
	C130.837,163.959,170.829,123.967,220.161,123.967z"/>
<path style="fill:#80D5FF;" d="M255.394,151.104h-88.501c-34.473,0-62.419,27.946-62.419,62.419v57.129h213.338v-57.129
	C317.812,179.05,289.867,151.104,255.394,151.104z"/>
<path style="fill:#64C4FF;" d="M130.837,213.291c0-23.603,9.159-45.063,24.111-61.033c-28.757,5.575-50.474,30.878-50.474,61.264
	v57.129h26.363V213.291z"/>
<path style="fill:#45DB73;" d="M343.294,259.755c-14.151,0-249.914,0-264.301,0c-30.158,0-54.605,24.448-54.605,54.605v50.791
	c1.467,3.108,2.995,6.181,4.582,9.219c8.783,0,358.146,0,368.93,0v-60.01C397.9,284.202,373.452,259.755,343.294,259.755z"/>
<path style="fill:#32CC65;" d="M132.452,259.755h-53.46c-30.158,0-54.605,24.448-54.605,54.605v50.791
	c1.467,3.108,2.995,6.181,4.582,9.219h48.878v-60.01C77.847,284.202,102.295,259.755,132.452,259.755z"/>
<path style="fill:#EFEFEF;" d="M390.69,369.433c-131.59,0-326.58,0-361.97,0c-0.74,0-1.46,0.073-2.169,0.181
	c4.91,9.897,10.435,19.434,16.537,28.555c57.787,0,228.613,0,347.603,0c7.935,0,14.368-6.432,14.368-14.368
	C405.058,375.865,398.625,369.433,390.69,369.433z"/>
<path style="fill:#DDDDDD;" d="M66.884,383.801c0-7.935,6.433-14.368,14.368-14.368c-25.084,0-43.737,0-52.532,0
	c-0.74,0-1.46,0.073-2.169,0.181c4.91,9.897,10.435,19.434,16.537,28.555c9.759,0,22.752,0,38.165,0
	C73.316,398.169,66.884,391.736,66.884,383.801z"/>
<path style="fill:#23B658;" d="M110.086,259.755c0,0,13.708,18.202,16.485,52.648c0.616,7.638,5.441,14.297,12.53,17.207
	l11.893,4.882h117.421l12.039-4.942c6.999-2.873,11.771-9.447,12.371-16.989c2.748-34.548,16.497-52.806,16.497-52.806H110.086z"/>
<path style="fill:#1FAA4D;" d="M188.595,312.403c-2.777-34.446-16.485-52.648-16.485-52.648h-62.025
	c0,0,13.708,18.203,16.485,52.648c0.616,7.638,5.441,14.297,12.53,17.206l11.893,4.882h62.025l-11.893-4.882
	C194.037,326.7,189.211,320.041,188.595,312.403z"/>
<path style="fill:#32CC65;" d="M261.35,369.433H158.06c-5.709,0-10.38-4.671-10.38-10.38v-24.007c0-5.709,4.671-10.38,10.38-10.38
	h103.29c5.709,0,10.38,4.671,10.38,10.38v24.007C271.729,364.762,267.059,369.433,261.35,369.433z"/>
<path style="fill:#23B658;" d="M201.68,359.053v-24.007c0-5.709,4.671-10.38,10.38-10.38h-54c-5.709,0-10.38,4.671-10.38,10.38
	v24.007c0,5.709,4.671,10.38,10.38,10.38h54C206.351,369.433,201.68,364.762,201.68,359.053z"/>
<circle style="fill:#FAC149;" cx="79.67" cy="314.91" r="25.558"/>
<path style="fill:#F8A748;" d="M79.237,289.354c-4.203,0.067-8.447,1.169-12.345,3.42c-12.224,7.058-16.412,22.688-9.355,34.912
	c7.058,12.224,22.688,16.413,34.912,9.355c3.898-2.251,6.975-5.375,9.134-8.981C81.526,328.383,68.936,306.554,79.237,289.354z"/>
<path style="fill:#FAC149;" d="M305.358,40.504h-7.267l5.937-8.083c2.421-3.295,1.711-7.93-1.585-10.351
	c-3.295-2.421-7.931-1.711-10.351,1.585l-14.596,19.871c-0.019,0.027-0.033,0.056-0.052,0.083c-3.469,4.846-0.03,11.705,6.02,11.705
	h7.267l-5.938,8.084c-2.42,3.295-1.711,7.93,1.585,10.351c1.32,0.97,2.855,1.438,4.377,1.438c2.276,0,4.523-1.047,5.974-3.022
	l14.595-19.872c0.02-0.027,0.033-0.056,0.052-0.083C314.889,47.303,311.323,40.504,305.358,40.504z"/>
<path style="fill:#EFEFEF;" d="M256,512c56.508,0,108.729-18.323,151.077-49.332H104.923C147.271,493.677,199.492,512,256,512z"/>
<path style="fill:#DDDDDD;" d="M199.549,462.668h-94.625c27.072,19.824,58.184,34.451,91.867,42.433
	C179.818,495.741,181.954,469.492,199.549,462.668z"/>
<circle style="fill:#FAC149;" cx="342.62" cy="314.91" r="25.558"/>
<path style="fill:#F8A748;" d="M341.962,315.286c-4.807-8.326-4.392-18.23,0.22-25.931c-4.203,0.067-8.447,1.169-12.345,3.42
	c-12.224,7.058-16.412,22.688-9.355,34.912c7.058,12.224,22.688,16.413,34.913,9.355c3.898-2.251,6.975-5.375,9.134-8.981
	C355.553,328.205,346.769,323.612,341.962,315.286z"/>
<path style="fill:#57A7FF;" d="M29.517,136.592h71.655c6.972,0,12.625-5.652,12.625-12.625c0-6.973-5.653-12.625-12.625-12.625
	h-3.235c-6.973,0-12.625-5.652-12.625-12.625s5.652-12.625,12.625-12.625h37.345c6.972,0,12.625-5.652,12.625-12.625
	c0-6.972-5.652-12.625-12.625-12.625H90.34C65.554,81.903,44.835,107.598,29.517,136.592z"/>
<g>
</g>
<g>
</g>
<g>
</g>
<g>
</g>
<g>
</g>
<g>
</g>
<g>
</g>
<g>
</g>
<g>
</g>
<g>
</g>
<g>
</g>
<g>
</g>
<g>
</g>
<g>
</g>
<g>
</g>
</svg>
