<?xml version="1.0" encoding="iso-8859-1"?>
<!-- Generator: Adobe Illustrator 19.0.0, SVG Export Plug-In . SVG Version: 6.00 Build 0)  -->
<svg version="1.1" id="Capa_1" xmlns="http://www.w3.org/2000/svg" xmlns:xlink="http://www.w3.org/1999/xlink" x="0px" y="0px"
	 viewBox="0 0 512.001 512.001" style="enable-background:new 0 0 512.001 512.001;" xml:space="preserve">
<circle style="fill:#32CC65;" cx="256.001" cy="265.41" r="246.59"/>
<path style="fill:#FAC149;" d="M479.462,112.651c0-8.991-7.372-15.993-16.014-15.929c-0.314,0.002-0.626,0.007-0.939,0.013
	l-0.594,0.008c-73.044,0-141.775-32.296-188.568-88.607c-9.026-10.859-25.686-10.838-34.692,0.002
	C191.861,64.447,123.131,96.743,50.087,96.743l-0.593-0.008c-0.313-0.006-0.626-0.011-0.939-0.013c-0.029,0-0.057,0-0.085,0
	c-8.798,0-15.929,7.138-15.929,15.929v148.338c0,80.412,31.115,152.471,81.489,206.056C154.172,495.36,203.142,512,256.001,512
	s101.828-16.639,141.971-44.955c7.045-7.495,13.718-15.351,19.966-23.551c40.249-52.82,61.524-115.93,61.524-182.505V112.651z"/>
<path style="fill:#F8A748;" d="M105.687,284.775V90.364c-18.041,4.193-36.673,6.379-55.6,6.379l-0.593-0.008
	c-0.313-0.006-0.626-0.011-0.939-0.013c-0.029,0-0.057,0-0.085,0c-8.798,0-15.928,7.138-15.928,15.929v148.338
	c0,80.413,31.115,152.469,81.489,206.056c22.7,16.012,48.223,28.286,75.675,35.934C137.184,445.051,105.687,368.892,105.687,284.775
	z"/>
<path style="fill:#EFEFEF;" d="M447.604,132.665c0-2.489-1.94-4.526-4.423-4.693c-70.192-4.719-135.653-35.85-183.764-87.464
	c-1.843-1.977-4.99-1.977-6.833,0c-48.111,51.615-113.572,82.745-183.763,87.464c-2.483,0.167-4.423,2.204-4.423,4.693v128.324
	c0,113.823,70.074,209.924,168.525,249.928c7.6,0.706,15.294,1.084,23.078,1.084s15.478-0.378,23.077-1.084
	c44.54-18.099,84.195-48.245,113.52-86.73c35.985-47.225,55.006-103.657,55.006-163.197L447.604,132.665L447.604,132.665z"/>
<path style="fill:#DDDDDD;" d="M105.687,122.977c-12.094,2.47-24.403,4.157-36.866,4.995c-2.483,0.167-4.423,2.204-4.423,4.693
	v128.324c0,83.918,38.038,158.673,98.614,208.315c-37.547-54.372-57.325-117.837-57.325-184.528
	C105.687,284.776,105.687,122.977,105.687,122.977z"/>
<circle style="fill:#3997EE;" cx="256.001" cy="285.11" r="142.97"/>
<path style="fill:#1F7FE8;" d="M230.022,382.649C144.754,333.42,133.63,214.442,208.404,150.3
	c-31.036,10.942-58.472,32.589-76.216,63.323c-39.48,68.381-16.051,155.819,52.33,195.298
	c53.977,31.164,119.822,23.121,164.587-15.279C311.088,407.045,267.668,404.384,230.022,382.649z"/>
<g>
	<path style="fill:#32CC65;" d="M238.392,143.191c5.822,11.607,5.852,11.277,5.557,12.295c-5.383,18.558-5.254,17.507-4.926,18.381
		c5.258,14.029,4.878,13.576,5.82,14.064l13.744,7.109c1.32,0.683,2.894-0.275,2.894-1.761V176.59c0-0.91,0.619-1.703,1.502-1.923
		c11.198-2.799,10.366-2.577,10.599-2.681c22.453-10.038,22.53-9.535,22.53-11.364c0-0.234,0-6.316,0-12.738
		C277.538,142.456,257.885,140.781,238.392,143.191z"/>
	<path style="fill:#32CC65;" d="M228.827,330.983c-1.87-0.441-9.276-9.489-10.961-10.54c-13.112-8.129-7.222-5.664-22.943-10.195
		c-0.672-0.197-0.247-0.073-12.398-7.185c-1.271-0.747-1.063-0.284-16.233-0.426c-0.545,0-1.075,0.152-1.543,0.424l-17.667-9.2
		l-3.823-8.824c-2.124-4.902-6.608-4.279-24.609-11.829c0.348-5.217-0.958-8.043,1.559-9.474c11.407-6.11,11.974-7.712,14.277-6.894
		c9.087,2.828,3.501,2.185,11.153,2.279c4.816,0,2.972-8.845,5.317-11.165l10.336-10.222c1.16-1.147,7.435-15.728,8.547-16.77
		l7.005-6.567c1.908-1.789,1.679-7.655,4.316-8.864c10.035-4.436,10.114-5.023,11.653-4.82c20.972,2.134,11.59,3.646,24.76-1.124
		c2.134-0.805,2.687-3.567,1.027-5.131c-6.71-6.35-3.211-2.312-14.729-17.235c-1.117-1.445-2.412-1.082-7.025-2.273
		c-4.093-0.895-2.355-9.697-7.371-9.051c-2.555,0.553-4.905-0.053-6.046,2.088l-7.254,13.602c-4.022,7.404-3.838,9.252-6.078,9.869
		c-2.814,0.443-6.216,2.829-8.108,0.076c-4.147-5.979-5.052-7.591-6.02-8.615c-28.28,27.645-43.447,65.594-42.935,104.213
		c0.239,0.192,0.468,0.305,0.776,0.422c0,0,0.002,0.003,0.004,0.004l16.993,6.297l3.628,8.374
		c1.807,4.172,4.437,3.635,24.143,14.456c1.127,2.338,2.374,3.315,1.927,5.14c-3.612,15.505-3.108,6.902,0.136,21.493
		c0.273,1.044-0.212-0.034,12.142,16.572c0.692,0.923,0.262,0.346,14.796,8.602c1.745,0.979,1.045,1.403,7.983,18.985
		c0.229,0.603-0.653-0.898,17.263,26.215c0.818,1.237,1.666,1.132,6.587,3.499c2.813,1.272,5.543-1.918,3.852-4.501
		c-1.797-2.744,1.306-4.616,5.585-12.521c0.409-0.668,0.157-0.272,4.294-14.949c0.738-2.644,3.078-2.07,13.163-6.021
		c1.946-0.684,1.841-2.23,5.689-9.112c0.995-1.908-0.447-9.15,0.817-11.174l6.139-9.838c1.466-2.348-0.74-4.077-3.362-10.562
		C254.464,336.095,253.66,337.267,228.827,330.983z"/>
</g>
<path style="fill:#23B658;" d="M230.022,382.649c-31.941-18.441-54.071-47.348-64.566-79.888c-0.246,0.072-0.484,0.172-0.708,0.301
	l-17.667-9.2l-3.823-8.824c-2.124-4.902-6.608-4.279-24.608-11.829c0.348-5.217-0.958-8.043,1.559-9.474
	c11.407-6.11,11.974-7.712,14.277-6.894c9.087,2.828,3.501,2.185,11.153,2.279c4.816,0,2.972-8.845,5.317-11.165l8.918-8.82
	c3.692-26.616,14.889-51.692,32.199-72.313c-0.598-0.684-1.403-1.077-2.599-0.923c-2.555,0.553-4.905-0.053-6.046,2.088
	l-7.254,13.602c-4.022,7.404-3.838,9.252-6.078,9.869c-2.814,0.443-6.216,2.829-8.108,0.076c-4.147-5.979-5.053-7.591-6.02-8.615
	c-27.772,27.149-43.394,64.816-42.935,103.993c0.001,0.074,0.001,0.148,0.002,0.221c0.238,0.191,0.467,0.305,0.774,0.421
	c0,0,0.003,0.003,0.004,0.004l16.993,6.297l3.628,8.374c1.807,4.172,4.437,3.635,24.143,14.456c1.127,2.338,2.374,3.315,1.927,5.14
	c-3.611,15.505-3.108,6.902,0.136,21.493c0.273,1.044-0.212-0.034,12.142,16.572c0.692,0.923,0.262,0.346,14.795,8.602
	c1.745,0.979,1.045,1.403,7.983,18.985c0.229,0.603-0.653-0.898,17.263,26.215c0.818,1.237,1.665,1.132,6.586,3.499
	c2.813,1.272,5.543-1.918,3.852-4.501c-1.797-2.744,1.306-4.616,5.585-12.521c0.409-0.668,0.157-0.272,4.294-14.949
	c0.071-0.256,0.164-0.474,0.271-0.677C232.276,383.927,231.146,383.298,230.022,382.649z"/>
<path style="fill:#32CC65;" d="M379.815,213.622c-11.122-19.264-26.051-34.959-43.286-46.686c0.267,1.184,0.188,2.455-0.347,3.643
	c-1.041,1.824-1.376,4.97-4.684,6.194c-18.13,6.981-6.701,0.704-24.227,16.394c-1.593,1.538-2.17,3.85-1.487,5.956
	c1.067,3.291-0.969,6.778-4.359,7.466l-5.629,1.143c-5.917,1.201-4.46,7.901-4.642,8.661c0,3.201,2.595,5.795,5.795,5.795
	c5.245,0,9.706,0,14.933,0c4.695,0,5.517-4.406,11.35-11.391c1.944-2.627,4.183-2.113,12.898-4.855
	c3.711-1.03,5.651,1.681,12.164,4.954c2.856,1.625,6.49,0.552,8.006-2.364l1.407-2.706c2.985-5.741,11.929-2.745,11.929,3.143
	c-0.21,8.437,0.519,9.738-0.8,11.98c-0.962,2.351-5.303,6.197-2.232,10.534l4.03,5.689c3.394,4.791-1.929,8.654-2.341,9.42
	c-1.412,1.614-3.6,2.316-5.688,1.825c-13.173-3.236-13.59-2.869-15.208-4.023c-9.086-6.342-9.216-6.941-11.053-7.4
	c-13.165-3.007-14.398-4.308-17.217-3.301c-18.94,7.004-19.442,6.379-21.163,8.315c-5.204,5.87-8.647,9.735-10.949,12.318
	c4.159-0.045,8.331,1.512,11.504,4.686c6.258,6.258,6.258,16.405,0,22.664l-20.392,20.392c13.081,8.733,13.412,10.039,16.381,10.039
	c10.57,0,19.307,0,29.104,0c2.37,0,4.5,1.443,5.38,3.643c1.694,4.665,2.811,5.87,2.515,8.235
	c-2.858,21.589,0.191,10.081-9.95,31.155c-10.784,21.156-8.588,15.972-10.75,23.192c-1.505,4.926,3.683,9.22,8.241,6.821
	c5.207-2.95-2.569,3.18,30.05-29.739c0.664-0.686,15.874-21.426,16.54-22.181c10.333-11.643,3.264-5.197,26.652-23.443
	c3.365-11.539,5.45-23.29,6.328-35.059C397.117,253.847,390.986,232.972,379.815,213.622z"/>
<path style="fill:#EFEFEF;" d="M298.937,258.594c-6.478-6.479-17.021-6.477-23.498,0l-30.839,30.84l-10.397-10.398
	c-6.477-6.479-17.019-6.477-23.498,0c-6.478,6.478-6.478,17.019,0,23.498l22.146,22.146c3.137,3.138,7.31,4.867,11.749,4.867
	s8.611-1.729,11.749-4.867l42.589-42.589C305.416,275.614,305.416,265.073,298.937,258.594z"/>
<path style="fill:#DDDDDD;" d="M298.958,258.617c-0.679,2.42-1.96,4.705-3.861,6.606l-38.882,38.882
	c-2.865,2.865-6.674,4.443-10.726,4.443c-4.053,0-7.862-1.578-10.726-4.443l-20.219-20.218c-1.539-1.539-2.668-3.332-3.406-5.242
	c-0.143,0.134-0.295,0.253-0.434,0.392c-6.479,6.478-6.479,17.019,0,23.498l22.146,22.146c3.137,3.138,7.31,4.867,11.749,4.867
	c4.438,0,8.611-1.729,11.749-4.867l42.589-42.589C305.408,275.621,305.414,265.097,298.958,258.617z"/>
<g>
</g>
<g>
</g>
<g>
</g>
<g>
</g>
<g>
</g>
<g>
</g>
<g>
</g>
<g>
</g>
<g>
</g>
<g>
</g>
<g>
</g>
<g>
</g>
<g>
</g>
<g>
</g>
<g>
</g>
</svg>
