<svg id="Layer_2" height="512" viewBox="0 0 128 128" width="512" xmlns="http://www.w3.org/2000/svg" data-name="Layer 2"><path d="m77.073 73.302h-26.146l-10.008-20.136v-20.137h46.162v20.137z" fill="#284cb2"/><g fill="#e8f3fc"><path d="m46.667 1.75h4a2 2 0 0 1 2 2v20.826a0 0 0 0 1 0 0h-8a0 0 0 0 1 0 0v-20.826a2 2 0 0 1 2-2z"/><path d="m75.333 1.75h8a0 0 0 0 1 0 0v20.826a2 2 0 0 1 -2 2h-4a2 2 0 0 1 -2-2v-20.826a0 0 0 0 1 0 0z" transform="matrix(-1 0 0 -1 158.667 26.326)"/><path d="m60 73.302h8v52.948h-8z" transform="matrix(-1 0 0 -1 128 199.552)"/></g><path d="m20.5 81.667h10a29.5 29.5 0 0 1 29.5 29.5 0 0 0 0 1 0 0h-10a29.5 29.5 0 0 1 -29.5-29.5 0 0 0 0 1 0 0z" fill="#9dc422"/><path d="m97.5 81.667h10a0 0 0 0 1 0 0 29.5 29.5 0 0 1 -29.5 29.5h-10a0 0 0 0 1 0 0 29.5 29.5 0 0 1 29.5-29.5z" fill="#9dc422" transform="matrix(-1 0 0 -1 175.5 192.833)"/><path d="m35.687 24.576h56.625v8.453h-56.625z" fill="#06daf7"/><path d="m98.611 100.247c-.521.579-1.075 1.143-1.646 1.677a1.75 1.75 0 0 0 2.393 2.555c.642-.6 1.265-1.236 1.853-1.887a1.75 1.75 0 0 0 -2.6-2.345z"/><path d="m107.5 79.917h-10a31.275 31.275 0 0 0 -27.75 16.907v-21.772h7.323a1.751 1.751 0 0 0 1.567-.971l10.008-20.137a1.753 1.753 0 0 0 .183-.779v-18.386h3.481a1.75 1.75 0 0 0 1.75-1.75v-8.452a1.75 1.75 0 0 0 -1.75-1.75h-7.229v-19.077a3.754 3.754 0 0 0 -3.75-3.75h-4a3.754 3.754 0 0 0 -3.75 3.75v19.077h-19.166v-7.91a1.75 1.75 0 0 0 -3.5 0v7.91h-4.5v-19.077a.25.25 0 0 1 .25-.25h4a.25.25 0 0 1 .25.25v3.25a1.75 1.75 0 0 0 3.5 0v-3.25a3.754 3.754 0 0 0 -3.75-3.75h-4a3.754 3.754 0 0 0 -3.75 3.75v19.077h-7.23a1.75 1.75 0 0 0 -1.75 1.75v8.453a1.75 1.75 0 0 0 1.75 1.75h3.481v18.386a1.753 1.753 0 0 0 .183.779l10.008 20.136a1.751 1.751 0 0 0 1.567.971h7.324v21.772a31.275 31.275 0 0 0 -27.75-16.907h-10a1.75 1.75 0 0 0 -1.75 1.75 31.285 31.285 0 0 0 31.25 31.25h8.25v13.333a1.75 1.75 0 0 0 1.75 1.75h8a1.75 1.75 0 0 0 1.75-1.75v-13.333h8.25a30.981 30.981 0 0 0 13.133-2.886 1.75 1.75 0 1 0 -1.473-3.175 27.507 27.507 0 0 1 -11.66 2.561h-4.732l15.532-11.598a1.75 1.75 0 1 0 -2.094-2.8l-16.706 12.469a27.786 27.786 0 0 1 27.5-24.071h8.2a27.508 27.508 0 0 1 -2.126 9.051 1.75 1.75 0 1 0 3.223 1.363 31.036 31.036 0 0 0 2.457-12.165 1.75 1.75 0 0 0 -1.754-1.749zm-30.417-76.167a.25.25 0 0 1 .25-.25h4a.25.25 0 0 1 .25.25v19.077h-4.5zm-39.646 22.577h53.125v4.953h-53.125zm5.231 26.428v-17.976h4.248v10.721a1.75 1.75 0 0 0 3.5 0v-10.721h27.167v10.721a1.75 1.75 0 0 0 3.5 0v-10.721h4.248v17.975l-9.342 18.8h-23.978zm-20.368 30.662h8.2a27.786 27.786 0 0 1 27.5 24.071l-16.7-12.474a1.75 1.75 0 1 0 -2.094 2.8l15.529 11.6h-4.735a27.785 27.785 0 0 1 -27.7-25.997zm43.95 41.083h-4.5v-49.448h4.5z"/><path d="m69.925 54a1.75 1.75 0 0 0 -1.237-2.987h-4.338l5.575-5.575a1.75 1.75 0 0 0 -2.475-2.475l-8.562 8.563a1.75 1.75 0 0 0 1.237 2.987h4.338l-6.388 6.387a1.75 1.75 0 1 0 2.475 2.475z"/></svg>